<svg xmlns="http://www.w3.org/2000/svg" version="1.1" xmlns:xlink="http://www.w3.org/1999/xlink" xmlns:svgjs="http://svgjs.dev/svgjs" viewBox="0 0 15.628710297264957 15.51253522545257"><g transform="matrix(1,0,0,1,1.2975410617184169,13.134994163734152)"><g><path d=" M 0.384 0.5489999999999998 L 0.384 1.0724999999999998 L 0.0915 1.0724999999999998 L 0.0915 0.00749999999999984 L 0.3195 0.00749999999999984 L 0.747 0.5489999999999998 L 0.747 0.00749999999999984 L 1.0395 0.00749999999999984 L 1.0395 1.0724999999999998 L 0.807 1.0724999999999998 L 0.384 0.5489999999999998 M 1.98604248046875 0.8174999999999998 L 1.98604248046875 1.0724999999999998 L 1.2270424804687499 1.0724999999999998 L 1.2270424804687499 0.00749999999999984 L 1.97254248046875 0.00749999999999984 L 1.97254248046875 0.26249999999999973 L 1.51954248046875 0.26249999999999973 L 1.51954248046875 0.41249999999999976 L 1.90654248046875 0.41249999999999976 L 1.90654248046875 0.6494999999999997 L 1.51954248046875 0.6494999999999997 L 1.51954248046875 0.8174999999999998 L 1.98604248046875 0.8174999999999998 M 2.9565197753906247 0.26249999999999973 L 2.6505197753906247 0.26249999999999973 L 2.6505197753906247 1.0724999999999998 L 2.358019775390625 1.0724999999999998 L 2.358019775390625 0.26249999999999973 L 2.050519775390625 0.26249999999999973 L 2.050519775390625 0.00749999999999984 L 2.9565197753906247 0.00749999999999984 L 2.9565197753906247 0.26249999999999973 M 3.897054931640625 0.26249999999999973 L 3.591054931640625 0.26249999999999973 L 3.591054931640625 1.0724999999999998 L 3.2985549316406244 1.0724999999999998 L 3.2985549316406244 0.26249999999999973 L 2.9910549316406247 0.26249999999999973 L 2.9910549316406247 0.00749999999999984 L 3.897054931640625 0.00749999999999984 L 3.897054931640625 0.26249999999999973 M 4.2135900878906245 0.00749999999999984 L 4.422090087890625 0.7349999999999998 L 4.627590087890625 0.00749999999999984 L 4.935090087890625 0.00749999999999984 L 4.567590087890625 1.0724999999999998 L 4.276590087890625 1.0724999999999998 L 3.904590087890625 0.00749999999999984 L 4.2135900878906245 0.00749999999999984 M 6.11705419921875 1.0724999999999998 L 6.11705419921875 0.5114999999999997 L 5.93855419921875 0.9059999999999998 L 5.78255419921875 0.9059999999999998 L 5.6040541992187505 0.5114999999999997 L 5.6040541992187505 1.0724999999999998 L 5.31155419921875 1.0724999999999998 L 5.31155419921875 0.00749999999999984 L 5.631054199218751 0.00749999999999984 L 5.86055419921875 0.5084999999999997 L 6.09155419921875 0.00749999999999984 L 6.40955419921875 0.00749999999999984 L 6.40955419921875 1.0724999999999998 L 6.11705419921875 1.0724999999999998 M 6.843060058593751 0.00749999999999984 L 7.170060058593751 0.00749999999999984 L 7.50906005859375 1.0724999999999998 L 7.21206005859375 1.0724999999999998 L 7.147560058593751 0.8639999999999998 L 6.864060058593751 0.8639999999999998 L 6.80106005859375 1.0724999999999998 L 6.50256005859375 1.0724999999999998 L 6.843060058593751 0.00749999999999984 M 7.101060058593751 0.6689999999999998 L 7.006560058593751 0.2939999999999998 L 6.90756005859375 0.6689999999999998 L 7.101060058593751 0.6689999999999998 M 8.019060791015626 1.0799999999999998 Q 7.915560791015626 1.0799999999999998 7.821810791015626 1.0432499999999998 Q 7.728060791015626 1.0064999999999997 7.6560607910156255 0.9352499999999998 Q 7.5840607910156255 0.8639999999999998 7.542810791015626 0.7627499999999998 Q 7.501560791015626 0.6614999999999998 7.501560791015626 0.5309999999999998 Q 7.501560791015626 0.41849999999999976 7.543560791015626 0.3224999999999998 Q 7.5855607910156255 0.2264999999999998 7.659810791015626 0.15374999999999972 Q 7.734060791015626 0.08099999999999974 7.833060791015625 0.04049999999999976 Q 7.932060791015625 -2.220446049250313e-16 8.047560791015625 -2.220446049250313e-16 Q 8.191560791015625 -2.220446049250313e-16 8.308560791015626 0.062249999999999694 Q 8.425560791015625 0.12449999999999972 8.482560791015626 0.23249999999999982 L 8.265060791015625 0.3989999999999998 Q 8.233560791015625 0.33599999999999974 8.170560791015625 0.29774999999999974 Q 8.107560791015626 0.25949999999999973 8.037060791015625 0.25949999999999973 Q 7.9845607910156255 0.25949999999999973 7.941060791015626 0.28049999999999975 Q 7.897560791015626 0.30149999999999977 7.8653107910156255 0.33899999999999975 Q 7.833060791015625 0.3764999999999997 7.815810791015625 0.4282499999999998 Q 7.798560791015626 0.47999999999999976 7.798560791015626 0.5414999999999998 Q 7.798560791015626 0.6044999999999998 7.816560791015625 0.6554999999999997 Q 7.834560791015625 0.7064999999999998 7.8668107910156255 0.7432499999999997 Q 7.899060791015626 0.7799999999999998 7.944060791015626 0.8002499999999998 Q 7.989060791015626 0.8204999999999998 8.044560791015625 0.8204999999999998 Q 8.115060791015626 0.8204999999999998 8.179560791015625 0.7852499999999998 Q 8.244060791015626 0.7499999999999998 8.296560791015626 0.6854999999999998 L 8.296560791015626 0.9704999999999998 Q 8.176560791015625 1.0799999999999998 8.019060791015626 1.0799999999999998 M 8.281560791015625 0.7154999999999998 L 8.085060791015625 0.7154999999999998 L 8.085060791015625 0.5054999999999997 L 8.523060791015626 0.5054999999999997 L 8.523060791015626 1.0724999999999998 L 8.281560791015625 1.0724999999999998 L 8.281560791015625 0.7154999999999998 M 8.917581298828125 0.00749999999999984 L 9.244581298828125 0.00749999999999984 L 9.583581298828125 1.0724999999999998 L 9.286581298828125 1.0724999999999998 L 9.222081298828124 0.8639999999999998 L 8.938581298828124 0.8639999999999998 L 8.875581298828125 1.0724999999999998 L 8.577081298828125 1.0724999999999998 L 8.917581298828125 0.00749999999999984 M 9.175581298828124 0.6689999999999998 L 9.081081298828124 0.2939999999999998 L 8.982081298828124 0.6689999999999998 L 9.175581298828124 0.6689999999999998 M 9.625569580078125 0.8549999999999998 L 10.108569580078125 0.26249999999999973 L 9.648069580078126 0.26249999999999973 L 9.648069580078126 0.00749999999999984 L 10.461069580078124 0.00749999999999984 L 10.461069580078124 0.22499999999999976 L 10.008069580078125 0.8174999999999998 L 10.470069580078125 0.8174999999999998 L 10.470069580078125 1.0724999999999998 L 9.625569580078125 1.0724999999999998 L 9.625569580078125 0.8549999999999998 M 10.61408349609375 1.0724999999999998 L 10.61408349609375 0.00749999999999984 L 10.90658349609375 0.00749999999999984 L 10.90658349609375 1.0724999999999998 L 10.61408349609375 1.0724999999999998 M 11.3866083984375 0.5489999999999998 L 11.3866083984375 1.0724999999999998 L 11.0941083984375 1.0724999999999998 L 11.0941083984375 0.00749999999999984 L 11.3221083984375 0.00749999999999984 L 11.7496083984375 0.5489999999999998 L 11.7496083984375 0.00749999999999984 L 12.0421083984375 0.00749999999999984 L 12.0421083984375 1.0724999999999998 L 11.8096083984375 1.0724999999999998 L 11.3866083984375 0.5489999999999998 M 12.98865087890625 0.8174999999999998 L 12.98865087890625 1.0724999999999998 L 12.22965087890625 1.0724999999999998 L 12.22965087890625 0.00749999999999984 L 12.97515087890625 0.00749999999999984 L 12.97515087890625 0.26249999999999973 L 12.52215087890625 0.26249999999999973 L 12.52215087890625 0.41249999999999976 L 12.909150878906251 0.41249999999999976 L 12.909150878906251 0.6494999999999997 L 12.52215087890625 0.6494999999999997 L 12.52215087890625 0.8174999999999998 L 12.98865087890625 0.8174999999999998" fill="#404040" fill-rule="nonzero"></path></g><g></g><g clip-path="url(#SvgjsClipPath1002)"><path d=" M 0.873087535906194 -11.837453102015736 L 12.16054063792193 -11.837453102015736 L 12.16054063792193 -0.5500000000000007 L 0.873087535906194 -0.5500000000000007 Z" fill="#404040" transform="matrix(1,0,0,1,0,0)" fill-rule="nonzero" mask="url(#maskedIcon-af8b1e25-a60f-4e51-b06b-59d03cd9592a)"></path></g></g><defs><clipPath id="SvgjsClipPath1002"><path d=" M 0.873087535906194 -11.837453102015736 h 11.287453102015736 v 11.287453102015736 h -11.287453102015736 Z"></path></clipPath><mask id="maskedIcon-af8b1e25-a60f-4e51-b06b-59d03cd9592a"><path d=" M 12.16054063792193 -6.1937265510078685 C 12.16054063792193 -3.076782161529797 9.633758476392133 -0.5500000000000007 6.516814086914062 -0.5500000000000007 C 3.3998696974359923 -0.5500000000000007 0.873087535906194 -3.076782161529797 0.873087535906194 -6.1937265510078685 C 0.873087535906194 -9.310670940485938 3.3998696974359923 -11.837453102015736 6.516814086914062 -11.837453102015736 C 9.633758476392133 -11.837453102015736 12.16054063792193 -9.310670940485938 12.16054063792193 -6.1937265510078685 Z" fill="#ffffff" transform="matrix(1,0,0,1,0,0)" fill-rule="nonzero"></path><path d=" M 9.337297478175694 -8.557928219482235 C 9.341114102891543 -8.648921700263934 9.275461578453008 -8.728046504233133 9.185326226957027 -8.74108485457688 C 9.099549156750468 -8.762229209118974 9.010050371251822 -8.763299542818222 8.923792166899739 -8.744212592192763 C 8.921216382980772 -8.704839895145797 8.917812668516433 -8.67227462702751 8.917260714819507 -8.639709358909222 C 8.91606481514285 -8.567587409178332 8.917260714819507 -8.495373467164619 8.915052900031828 -8.42334350971655 C 8.912125379076267 -8.397145274507677 8.906892194652695 -8.37125640332991 8.89941421195242 -8.34597799986492 C 8.685193839166764 -8.321314905084206 8.468643733164471 -8.325274678451104 8.255468232212325 -8.357753012065873 C 8.255468232212325 -8.449745294885892 8.256756124171808 -8.545509261301525 8.254732293949766 -8.64090525858588 C 8.252033911130571 -8.673455565564165 8.247147271757063 -8.705787292739844 8.240105520981388 -8.737681140112535 C 8.198341024581097 -8.740164931748673 8.165131810483075 -8.74338466164738 8.131738611819411 -8.743844623061475 C 8.030547100717396 -8.745132515020963 7.929355589615379 -8.746144430131976 7.828716032210281 -8.745868453283517 C 6.866722066667119 -8.743353997553106 5.90482009340678 -8.74050223678568 4.943010112429259 -8.737313170981254 C 4.896674655435037 -8.747430506569035 4.84822248837618 -8.73739900200198 4.809713294623055 -8.709715486135249 C 4.80371616649411 -8.646181952456475 4.801320534530348 -8.582359859883343 4.8025378965630985 -8.51855552243526 C 4.810328275759918 -8.453763675831699 4.805009958618671 -8.38806681702803 4.786899208483694 -8.325371728513229 C 4.57503567662731 -8.302352716536667 4.361146913256405 -8.305442255224678 4.1500366345207365 -8.334570956795233 C 4.122438949674731 -8.459220500016352 4.162547584984255 -8.590585479883337 4.127682509795472 -8.715419007670093 C 4.039404038972091 -8.74788762242477 3.942275873953109 -8.746807329386142 3.854741406668491 -8.712383262337031 C 3.7714496173053447 -8.692431019675364 3.714435188902478 -8.615649522281702 3.719420758640249 -8.530146550070585 C 3.719420758640249 -8.491693775851818 3.718776812660509 -8.45324100163305 3.7185928280948684 -8.414788227414281 C 3.710926804526535 -6.92377730746749 3.703322109146746 -5.4327970516149815 3.6957787419555044 -3.941847459856734 C 3.6957787419555044 -3.9081782843446122 3.694214873147566 -3.874417116549667 3.6957787419555044 -3.8406559487547183 C 3.6892898820211237 -3.7445635112560147 3.7575780205666427 -3.6595533797919106 3.8528095687292714 -3.6451723477621876 C 3.9377651564945624 -3.6266123266682087 4.025550375190804 -3.6250179370124034 4.111123898887868 -3.640480741338365 C 4.119771173472949 -3.7080030769282573 4.127314540664191 -3.7676140761956294 4.134581931006973 -3.8244653069783965 C 4.3480467783733845 -3.8472237101504456 4.563409554537933 -3.8455879653615748 4.776504080525028 -3.819589715988938 C 4.781655648362953 -3.7654062614079464 4.787083193049336 -3.7091989766049185 4.792602730018535 -3.649495985054733 C 4.844280337603005 -3.635600322045768 4.898099231097521 -3.6314820067174924 4.951289417883058 -3.6373530037224953 C 5.725557798284845 -3.6391928493788885 6.4998875068751785 -3.6414619923551186 7.274278543654058 -3.644160432651171 C 7.548415546457699 -3.6452643400450135 7.822552549261341 -3.648484069943713 8.096597559782165 -3.6519797766908706 C 8.139817470258052 -3.6439129794558003 8.184497707049125 -3.6514085698729737 8.222718979528402 -3.673138001739474 C 8.228422501063244 -3.729437278825328 8.234126022598085 -3.7850006176486115 8.239461575001645 -3.837804187987304 C 8.453277163770682 -3.8658758657007093 8.66969074473602 -3.86816138089857 8.88405150072148 -3.844611616915979 C 8.889019083993762 -3.791256092880378 8.893986667266047 -3.7351408003601687 8.900702103911904 -3.6632948274777366 C 8.99253162943884 -3.6436741572118194 9.08783970719921 -3.6476941259516327 9.177690867482976 -3.67497784739588 C 9.260672526752089 -3.6950007747385563 9.319126397094946 -3.7692756015307456 9.319083006177335 -3.854638775743366 C 9.320922851833728 -3.8833403679832106 9.32018691357117 -3.9123179370715135 9.32027890585399 -3.941203513876995 C 9.326411724708654 -5.441781631237069 9.332360558997687 -6.942359748597139 9.338125408721071 -8.442937865957205 C 9.338217401003897 -8.481022671044698 9.339689277529013 -8.519199468415009 9.337297478175694 -8.557928219482235 Z M 4.772180443232493 -4.502724408210372 C 4.566246372159577 -4.46472676382093 4.355411179724257 -4.461399914449066 4.148380773429972 -4.4928812339486255 C 4.120238706184761 -4.695296269794365 4.117519166681209 -4.900436079164253 4.1402854525418125 -5.103526007307873 C 4.351285532742858 -5.140097224363848 4.56707224448344 -5.139287634969147 4.777791972484511 -5.101134207954558 C 4.79638268214676 -4.901996913082201 4.794502336151501 -4.7014780491615324 4.7721804432324895 -4.5027244082103755 Z M 4.788831046422914 -5.782613039085228 C 4.680665868107067 -5.761154260936127 4.570026922529708 -5.754961204928445 4.460142619907005 -5.764214582521232 C 4.356738432296485 -5.758414618597629 4.253055087001359 -5.7598593613278 4.149852649955104 -5.76853821981377 C 4.1244596186961555 -5.973799363812238 4.124645020874196 -6.181418902857243 4.150404603652017 -6.3866343680814515 C 4.355912152078978 -6.409005297553359 4.563062922866006 -6.412085148442253 4.7691446978994305 -6.395833596363453 C 4.778453986385738 -6.381064513800549 4.785202941768598 -6.364829699469438 4.789107023271373 -6.347813624731403 C 4.801617973734899 -6.161989213434965 4.792970699149816 -5.975980817572895 4.788831046422914 -5.7826130390852235 Z M 4.797018359593895 -7.360648658579751 C 4.800054104926957 -7.260653047154396 4.795822459917238 -7.160381458880579 4.794718552523395 -7.052198534284242 C 4.576517024912373 -7.03038593319362 4.356570139132514 -7.032823274191882 4.138905568299515 -7.059465924627025 C 4.130902239694175 -7.256881363558776 4.134949900138254 -7.456596609561027 4.139549514279254 -7.6534600947958555 C 4.352894716306047 -7.68576798294896 4.569453621558385 -7.691145640935817 4.784139439999095 -7.669466752006536 C 4.802622956905884 -7.567610506220345 4.806956838681119 -7.4636902125098565 4.797018359593895 -7.360648658579747 Z M 7.567549941284261 -6.111577442449604 C 7.528952494689008 -6.069083311952151 7.483256263272925 -6.033628265914744 7.432505270104477 -6.006798232317603 C 7.135646173444294 -5.858966633825838 6.857001548782473 -5.679765666892455 6.571273518343511 -5.512799673574128 C 6.471921852897892 -5.454660550831881 6.376893824744819 -5.389254037746847 6.2775421592992044 -5.33129889957024 C 6.2164353639825185 -5.293586880692936 6.15172067468751 -5.26206158205065 6.08435836537717 -5.237190794245362 C 6.046580887607989 -5.218997260891668 6.002548733778073 -5.219121555545049 5.96487457121103 -5.237528074970658 C 5.92720040864399 -5.255934594396272 5.900040493367082 -5.29059271064937 5.891174571455143 -5.331574876418699 C 5.874541579760074 -5.376471029375442 5.86471247570719 -5.423601118209466 5.8620130178012 -5.471403146305116 C 5.857229419094558 -5.576826302416856 5.858977272468141 -5.715090703495334 5.8587932879025 -5.820973821021173 C 5.8587932879025 -5.96015814492785 5.8587932879025 -6.179007785756666 5.8587932879025 -6.271000068576681 L 5.863116925195039 -6.271000068576681 C 5.863116925195039 -6.546976917036724 5.861001102690179 -6.651296165754621 5.864404817154522 -6.85763485611991 C 5.864186142940457 -6.92396625636988 5.873195734984615 -6.990005637229644 5.89117457145514 -7.053854395374984 C 5.917760341190128 -7.148422462113977 5.9851906844972 -7.173444363041019 6.080678674064376 -7.1481464852655145 C 6.131826273146062 -7.133567626181254 6.18096000280005 -7.112678065649116 6.226946403748198 -7.085959702079183 C 6.631712448156259 -6.856530948726068 7.035650562018943 -6.623606488625793 7.438852737619065 -6.391233982222436 C 7.484462238716111 -6.364315000976013 7.526391770422747 -6.3316000713700955 7.5635942731230035 -6.2939061469988635 C 7.589372393772181 -6.270868346306787 7.604433352080536 -6.238165448169722 7.6051832330264295 -6.203601168291527 C 7.605933113972324 -6.169036888413333 7.59230465489926 -6.135711565983936 7.567549941284261 -6.111577442449596 Z M 8.888007168882744 -4.506036130391897 C 8.677959771938147 -4.4884845260745605 8.466852356006644 -4.487592479584395 8.256664131888979 -4.5033683541901235 C 8.226797632443063 -4.707585412074221 8.224508002423562 -4.914889751677903 8.249856702960308 -5.11971664908421 C 8.460116122219222 -5.1492133914100515 8.67329943588709 -5.15150136315935 8.884143493004302 -5.126524078012897 C 8.901058359070563 -5.024551686050102 8.904953199582152 -4.9208438295708925 8.895734520639623 -4.817889969151745 C 8.900910175399709 -4.713891076127773 8.898327236912383 -4.609651058603377 8.888007168882744 -4.506036130391893 Z M 8.882579624196364 -5.788316560620076 C 8.67494326094514 -5.772183770454093 8.466352934570082 -5.772583663426058 8.258779954393846 -5.789512460296729 C 8.23122843902081 -5.991573912391319 8.23122843902081 -6.196439920470642 8.258779954393846 -6.398501372565227 C 8.466130648240725 -6.424971687747856 8.675833763586395 -6.4275644257062075 8.883775523873018 -6.406228724322105 C 8.908213548213503 -6.2009585723592 8.907812017189702 -5.993490581062154 8.882579624196364 -5.788316560620068 Z M 8.891778852478366 -7.0762085201002725 C 8.685280458064717 -7.046861484412203 8.475897812087341 -7.043770509419916 8.268623128655591 -7.0670092918182705 C 8.241772541254356 -7.269194101204933 8.240505332346718 -7.473956516158771 8.264851445059971 -7.676458165500864 C 8.474965273738528 -7.702363565737588 8.68732004700464 -7.704646950396361 8.897942335427313 -7.683265594429547 C 8.914074478458808 -7.481012592215885 8.91198088411492 -7.277718423794105 8.891686860195547 -7.075840550968991 Z" fill="NA" transform="matrix(1,0,0,1,0,0)" fill-rule="evenodd"></path></mask></defs></svg>